# xmcd
#
# Track frame offsets: 
#        150
#        15543
#        31107
#        46252
#        63547
#        85018
#        101215
#        117451
#        138799
#        153148
#        164287
#        179461
#        196153
#        212758
#        231101
#        250652
#        268750
#        287597
#        301809
#        316356
#
# Disc length: 4416 seconds
#
# Revision: 0
# Processed by: cddbd v1.5.1PL2 Copyright (c) Steve Scherf et al.
# Submitted via: ExactAudioCopy v0.95a3
#
DISCID=08113e14
DTITLE=Various Artist - Méga chansons françaises CD 4
DYEAR=2006
DGENRE=Easy Listening
TTITLE0=Confidences pour confidences (Jean Schultheis)
TTITLE1=Les petits boudins (Robert Farel)
TTITLE2=Et tu danses avec lui (C. Jérôme)
TTITLE3=Quand tu m'aimes (Herbert Léonard)
TTITLE4=Eve, lève-toi (Julie Piétri)
TTITLE5=Le coup de folie (Thierry Pastor)
TTITLE6=C'est la ouate (Caroline Loeb)
TTITLE7=Mise au point (Jackie Quartz)
TTITLE8=Boule de flipper (Corynne Charby)
TTITLE9=Dyslexique (Buzy)
TTITLE10=J'ai des doutes (Sara Mandiano)
TTITLE11=Besoin de rien envie de toi (Peter and Sloane)
TTITLE12=Femme que j'aime (Jean-Luc Lahaye)
TTITLE13=Un enfant de toi (Phil Barney)
TTITLE14=Comme au cinéma (Alain Delon)
TTITLE15=J'aurais voulu te dire (Caroline Legrand)
TTITLE16=A toutes les filles (Félix Gray and Dider Barbelivien)
TTITLE17=Argentina (Michèle Torr)
TTITLE18=Il est libre Max (Hervé Christiani)
TTITLE19=Aime-moi (Claude Barzotti)
EXTD=
EXTT0=
EXTT1=
EXTT2=
EXTT3=
EXTT4=
EXTT5=
EXTT6=
EXTT7=
EXTT8=
EXTT9=
EXTT10=
EXTT11=
EXTT12=
EXTT13=
EXTT14=
EXTT15=
EXTT16=
EXTT17=
EXTT18=
EXTT19=
PLAYORDER=
